<?xml version="1.0" encoding="UTF-8" standalone="no"?>
<!-- Created with Inkscape (http://www.inkscape.org/) -->

<svg
   xmlns:dc="http://purl.org/dc/elements/1.1/"
   xmlns:cc="http://creativecommons.org/ns#"
   xmlns:rdf="http://www.w3.org/1999/02/22-rdf-syntax-ns#"
   xmlns:svg="http://www.w3.org/2000/svg"
   xmlns="http://www.w3.org/2000/svg"
   xmlns:sodipodi="http://sodipodi.sourceforge.net/DTD/sodipodi-0.dtd"
   xmlns:inkscape="http://www.inkscape.org/namespaces/inkscape"
   width="1000mm"
   height="505.46622mm"
   viewBox="0 0 1000 505.46622"
   version="1.1"
   id="svg3133"
   inkscape:version="0.92.4 (5da689c313, 2019-01-14)"
   sodipodi:docname="Giant.svg">
  <defs
     id="defs3127">
    <clipPath
       clipPathUnits="userSpaceOnUse"
       id="clipPath2843">
      <path
         d="M 0,0 H 595.276 V 841.89 H 0 Z"
         id="path2841"
         inkscape:connector-curvature="0" />
    </clipPath>
    <clipPath
       clipPathUnits="userSpaceOnUse"
       id="clipPath2799">
      <path
         d="m 223.663,620.15 h 70.978 v 36.671 h -70.978 z"
         id="path2797"
         inkscape:connector-curvature="0" />
    </clipPath>
  </defs>
  <sodipodi:namedview
     id="base"
     pagecolor="#ffffff"
     bordercolor="#666666"
     borderopacity="1.0"
     inkscape:pageopacity="0.0"
     inkscape:pageshadow="2"
     inkscape:zoom="1"
     inkscape:cx="722.22835"
     inkscape:cy="1501.4427"
     inkscape:document-units="mm"
     inkscape:current-layer="layer1"
     showgrid="false"
     fit-margin-top="0"
     fit-margin-left="0"
     fit-margin-right="0"
     fit-margin-bottom="0"
     inkscape:window-width="1920"
     inkscape:window-height="1001"
     inkscape:window-x="-9"
     inkscape:window-y="-9"
     inkscape:window-maximized="1" />
  <metadata
     id="metadata3130">
    <rdf:RDF>
      <cc:Work
         rdf:about="">
        <dc:format>image/svg+xml</dc:format>
        <dc:type
           rdf:resource="http://purl.org/dc/dcmitype/StillImage" />
        <dc:title></dc:title>
      </cc:Work>
    </rdf:RDF>
  </metadata>
  <g
     inkscape:label="Layer 1"
     inkscape:groupmode="layer"
     id="layer1"
     transform="translate(388.63223,555.95491)">
    <g
       transform="matrix(14.158559,0,0,-14.158559,-3559.5394,8739.2934)"
       id="g2793">
      <g
         id="g2795"
         clip-path="url(#clipPath2799)">
        <g
           id="g2801"
           transform="translate(245.2045,655.9745)">
          <path
             d="m 0,0 c -0.166,0 -0.349,-0.008 -0.558,-0.023 -3.441,-0.263 -7.252,-0.85 -12.663,-4.788 -0.506,-0.367 -2.179,-1.772 -3.827,-3.827 -2.072,-2.586 -3.32,-5.246 -3.606,-7.694 -0.057,-0.484 -0.181,-2.201 0.612,-4.006 0.836,-1.904 2.376,-3.2 4.577,-3.854 l 0.082,-0.024 -0.03,-0.997 -0.027,-0.03 c -0.48,-0.545 -1.673,-2.002 -2.36,-3.751 -0.84,-2.142 -0.617,-3.923 0.663,-5.294 0.4,-0.428 0.989,-0.655 1.703,-0.655 0.91,0 1.97,0.362 3.066,1.047 1.236,0.772 2.445,1.9 3.594,3.353 l 0.047,0.06 0.072,-0.022 c 2.22,-0.665 4.938,-1.001 8.077,-1.001 6.168,0 11.676,1.279 11.729,1.292 0.069,0.018 0.214,0.046 0.433,0.089 8.931,1.758 16.799,4.869 21.826,7.17 l 0.074,0.034 0.054,-0.061 c 1.183,-1.309 2.48,-1.972 3.856,-1.972 h 0.001 c 3.235,0 6.37,3.545 8.661,6.133 0.078,0.088 0.155,0.176 0.231,0.261 l -0.874,3.968 c -0.351,-0.293 -1.274,-1.062 -1.736,-1.443 -0.574,-0.471 -1.609,-1.262 -2.105,-1.262 -0.174,0 -0.249,0.095 -0.278,0.151 -0.054,0.107 -0.221,0.434 1.015,2.133 l 0.025,0.036 0.043,0.008 c 3.628,0.698 5.29,4.304 6.184,6.241 0.136,0.294 0.257,0.557 0.365,0.763 l -1.642,0.103 0.016,0.117 c 0.249,1.823 -0.97,2.897 -1.6,3.131 -0.383,0.143 -0.786,0.216 -1.196,0.216 -1.783,0 -3.325,-1.354 -3.768,-1.875 l -0.065,-0.075 -0.082,0.056 c -3.301,2.249 -8.174,2.721 -11.681,2.721 -0.468,0 -0.841,-0.008 -1.114,-0.014 C 27.669,-3.588 27.569,-3.59 27.495,-3.59 24.246,-3.615 15.888,-4.463 10.799,-6.069 l -0.08,-0.025 -0.046,0.071 c -0.707,1.088 -1.851,1.712 -3.139,1.712 -2.102,0 -3.812,-1.766 -3.812,-3.937 v -0.078 l -2.54,-0.907 -0.926,0.824 0.117,0.081 c 4.039,2.785 3.478,3.92 2.548,5.801 L 2.855,-2.393 C 1.918,-0.492 1.331,0 0,0 m -15.434,-35.164 c -0.777,0 -1.422,0.251 -1.865,0.726 -0.73,0.781 -1.135,1.701 -1.206,2.737 -0.059,0.854 0.109,1.792 0.5,2.788 0.686,1.751 1.868,3.211 2.373,3.787 l 0.022,0.747 c -1.18,0.361 -2.186,0.916 -2.992,1.649 -0.699,0.637 -1.252,1.412 -1.643,2.302 -0.815,1.857 -0.688,3.625 -0.629,4.122 0.161,1.374 0.609,2.802 1.333,4.245 0.594,1.184 1.375,2.382 2.321,3.561 1.663,2.074 3.356,3.495 3.868,3.868 2.406,1.751 4.666,2.97 6.91,3.727 2.208,0.745 4.204,0.975 5.867,1.102 0.215,0.017 0.403,0.025 0.575,0.025 1.423,0 2.08,-0.541 3.053,-2.517 l 0.066,-0.134 c 0.94,-1.902 1.565,-3.164 -2.505,-6.002 l 0.617,-0.549 2.27,0.81 c 0.019,1.082 0.435,2.095 1.177,2.861 0.761,0.786 1.775,1.219 2.856,1.219 1.336,0 2.526,-0.634 3.278,-1.742 5.117,1.595 13.437,2.439 16.681,2.463 0.073,0.001 0.173,0.003 0.297,0.005 0.273,0.006 0.649,0.014 1.118,0.014 3.509,0 8.379,-0.471 11.724,-2.705 0.535,0.587 2.085,1.878 3.872,1.878 0.437,0 0.865,-0.077 1.273,-0.229 0.67,-0.25 1.956,-1.366 1.757,-3.25 l 1.756,-0.11 -0.088,-0.154 c -0.123,-0.214 -0.27,-0.532 -0.439,-0.901 -0.908,-1.966 -2.592,-5.617 -6.301,-6.357 -1.073,-1.483 -0.997,-1.816 -0.97,-1.868 0.004,-0.009 0.015,-0.03 0.08,-0.03 0.307,0 1.042,0.453 1.964,1.212 0.575,0.473 1.862,1.548 1.875,1.559 l 0.14,0.116 0.976,-4.434 -0.037,-0.041 c -0.088,-0.1 -0.178,-0.201 -0.268,-0.304 -2.318,-2.62 -5.492,-6.207 -8.827,-6.208 h -0.001 c -1.42,0 -2.754,0.668 -3.966,1.986 -4.654,-2.126 -9.439,-3.909 -14.223,-5.3 -3.829,-1.114 -6.553,-1.65 -7.578,-1.852 -0.217,-0.043 -0.359,-0.07 -0.424,-0.087 -0.053,-0.012 -5.587,-1.298 -11.781,-1.298 -3.127,0 -5.842,0.332 -8.069,0.988 -1.151,-1.444 -2.363,-2.569 -3.604,-3.345 -1.13,-0.707 -2.231,-1.08 -3.183,-1.08"
             style="fill:#ffffff;fill-opacity:1;fill-rule:nonzero;stroke:none"
             id="path2803"
             inkscape:connector-curvature="0" />
        </g>
        <g
           id="g2805"
           transform="translate(248.6441,647.8842)">
          <path
             d="m 0,0 c 0,2.235 1.75,4.047 3.924,4.047 1.366,0 2.525,-0.676 3.231,-1.762 4.926,1.553 13.22,2.457 16.729,2.483 1.109,0.008 8.582,0.397 13.156,-2.721 0.54,0.634 2.75,2.563 5.088,1.691 0.677,-0.252 1.927,-1.374 1.671,-3.25 l 1.696,-0.105 c -0.771,-1.347 -2.314,-6.367 -6.707,-7.212 -1.902,-2.616 -0.976,-2.669 1.208,-0.872 0.582,0.478 1.876,1.558 1.876,1.558 l 0.924,-4.201 c -3.186,-3.593 -8.274,-9.642 -12.951,-4.464 -12.18,-5.575 -21.563,-7.09 -22.279,-7.265 -1.079,-0.264 -12.18,-2.589 -19.864,-0.29 -3.469,-4.387 -7.109,-5.275 -8.531,-3.752 -3.084,3.302 0.694,8.057 1.696,9.193 l 0.025,0.872 c -5.164,1.533 -5.47,6.248 -5.267,7.979 0.693,5.917 6.494,10.882 7.478,11.597 5.19,3.778 8.917,4.518 12.72,4.809 1.8,0.137 2.454,-0.267 3.52,-2.431 0.977,-1.981 1.696,-3.17 -2.518,-6.076 l 0.771,-0.687 z"
             style="fill:#ffffff;fill-opacity:1;fill-rule:evenodd;stroke:none"
             id="path2807"
             inkscape:connector-curvature="0" />
        </g>
        <g
           id="g2809"
           transform="translate(245.0333,656.1324)">
          <path
             d="m 0,0 c -0.166,0 -0.349,-0.008 -0.558,-0.024 -3.441,-0.263 -7.252,-0.849 -12.663,-4.787 -0.506,-0.368 -2.179,-1.772 -3.827,-3.828 -2.072,-2.585 -3.32,-5.246 -3.606,-7.693 -0.057,-0.484 -0.181,-2.202 0.612,-4.006 0.836,-1.905 2.376,-3.201 4.577,-3.854 l 0.082,-0.024 -0.03,-0.997 -0.026,-0.03 c -0.481,-0.545 -1.674,-2.003 -2.36,-3.752 -0.841,-2.142 -0.618,-3.922 0.662,-5.293 0.4,-0.428 0.989,-0.655 1.703,-0.655 0.91,0 1.971,0.362 3.066,1.047 1.236,0.771 2.445,1.9 3.594,3.353 l 0.047,0.058 0.072,-0.021 c 2.22,-0.664 4.938,-1.001 8.077,-1.001 6.168,0 11.676,1.28 11.729,1.293 0.07,0.017 0.214,0.046 0.433,0.088 8.931,1.759 16.798,4.87 21.826,7.171 l 0.074,0.033 0.054,-0.06 c 1.182,-1.31 2.48,-1.973 3.856,-1.973 h 0.002 c 3.234,10e-4 6.37,3.546 8.66,6.133 0.078,0.088 0.155,0.176 0.231,0.261 l -0.874,3.968 c -0.351,-0.293 -1.274,-1.062 -1.736,-1.442 -0.573,-0.472 -1.609,-1.262 -2.106,-1.262 -0.174,0 -0.248,0.094 -0.277,0.151 -0.054,0.107 -0.221,0.434 1.015,2.133 l 0.025,0.036 0.044,0.008 c 3.626,0.698 5.289,4.304 6.183,6.24 0.136,0.295 0.257,0.557 0.365,0.764 l -1.642,0.102 0.016,0.118 c 0.249,1.823 -0.97,2.896 -1.6,3.131 -0.383,0.143 -0.786,0.215 -1.196,0.215 -1.783,0 -3.325,-1.353 -3.768,-1.874 l -0.065,-0.076 -0.082,0.056 c -3.3,2.249 -8.174,2.722 -11.682,2.722 -0.466,0 -0.84,-0.008 -1.112,-0.014 -0.126,-0.003 -0.226,-0.005 -0.3,-0.005 -3.249,-0.025 -11.607,-0.874 -16.696,-2.479 l -0.08,-0.025 -0.046,0.071 c -0.707,1.087 -1.851,1.712 -3.138,1.712 -2.103,0 -3.813,-1.766 -3.813,-3.937 v -0.078 l -2.54,-0.907 -0.926,0.824 0.117,0.08 c 4.039,2.785 3.478,3.92 2.548,5.802 L 2.855,-2.393 C 1.918,-0.492 1.331,0 0,0 Z m -15.434,-35.164 c -0.777,0 -1.422,0.25 -1.865,0.725 -0.73,0.781 -1.135,1.703 -1.206,2.738 -0.059,0.854 0.109,1.792 0.5,2.787 0.687,1.751 1.868,3.212 2.373,3.788 l 0.022,0.746 c -1.18,0.362 -2.186,0.917 -2.992,1.65 -0.699,0.636 -1.252,1.411 -1.643,2.302 -0.815,1.856 -0.688,3.624 -0.629,4.122 0.161,1.374 0.609,2.801 1.333,4.245 0.595,1.183 1.375,2.381 2.321,3.561 1.663,2.074 3.356,3.495 3.868,3.868 2.406,1.751 4.667,2.97 6.91,3.727 2.208,0.745 4.204,0.975 5.867,1.102 0.215,0.016 0.403,0.024 0.575,0.024 1.423,0 2.08,-0.541 3.053,-2.516 L 3.12,-2.429 C 4.06,-4.331 4.684,-5.594 0.614,-8.431 l 0.617,-0.55 2.27,0.811 c 0.019,1.081 0.435,2.095 1.177,2.861 0.761,0.786 1.776,1.219 2.857,1.219 1.335,0 2.525,-0.634 3.277,-1.743 5.117,1.596 13.437,2.439 16.682,2.464 0.072,0 0.171,0.003 0.296,0.005 0.274,0.006 0.648,0.014 1.117,0.014 3.511,0 8.381,-0.471 11.726,-2.705 0.534,0.587 2.084,1.878 3.871,1.878 0.437,0 0.865,-0.078 1.273,-0.23 0.67,-0.249 1.956,-1.366 1.757,-3.25 L 49.29,-7.766 49.202,-7.92 c -0.123,-0.214 -0.27,-0.533 -0.44,-0.901 -0.906,-1.966 -2.591,-5.618 -6.299,-6.357 -1.074,-1.483 -0.998,-1.816 -0.972,-1.868 0.005,-0.009 0.016,-0.03 0.08,-0.03 0.308,0 1.043,0.453 1.965,1.212 0.575,0.473 1.863,1.547 1.875,1.558 l 0.14,0.117 0.976,-4.434 -0.037,-0.042 c -0.088,-0.099 -0.177,-0.201 -0.268,-0.303 -2.318,-2.62 -5.493,-6.208 -8.826,-6.208 h -10e-4 c -1.421,0 -2.755,0.668 -3.967,1.986 -4.654,-2.126 -9.439,-3.91 -14.223,-5.301 -3.829,-1.114 -6.553,-1.65 -7.578,-1.851 -0.216,-0.044 -0.359,-0.071 -0.424,-0.087 -0.053,-0.013 -5.587,-1.299 -11.781,-1.299 -3.127,0 -5.841,0.333 -8.069,0.989 -1.151,-1.445 -2.363,-2.57 -3.604,-3.345 -1.13,-0.706 -2.231,-1.08 -3.183,-1.08 z"
             style="fill:none;stroke:#006f51;stroke-width:0.315;stroke-linecap:butt;stroke-linejoin:miter;stroke-miterlimit:10;stroke-dasharray:none;stroke-opacity:1"
             id="path2811"
             inkscape:connector-curvature="0" />
        </g>
        <g
           id="g2813"
           transform="translate(231.7353,631.7219)">
          <path
             d="M 0,0 C -1.306,5.381 9.781,12.856 24.763,16.695 39.745,20.534 52.949,19.284 54.255,13.903 55.56,8.522 44.474,1.047 29.492,-2.793 14.51,-6.631 1.306,-5.381 0,0"
             style="fill:#fdbe56;fill-opacity:1;fill-rule:evenodd;stroke:none"
             id="path2815"
             inkscape:connector-curvature="0" />
        </g>
        <g
           id="g2817"
           transform="translate(270.4718,638.4458)">
          <path
             d="M 0,0 C -0.668,-0.951 -0.052,-1.215 0.463,-0.634 2.981,2.536 6.527,5.548 8.223,5.442 8.994,5.284 8.994,4.016 9.045,3.065 8.531,2.695 6.373,0.529 5.756,-1.691 5.558,-2.404 6.091,-2.872 6.835,-2.536 c 2.108,0.951 3.133,1.964 4.06,3.117 0.977,1.216 2.622,3.646 2.622,3.646 -0.412,0.529 -1.851,0.37 -1.851,0.37 1.388,3.751 3.289,3.17 4.42,2.906 0.515,0.74 0.977,1.585 1.543,2.219 0.423,0.475 1.798,1.163 2.363,0.74 0.392,-0.293 0.514,-0.74 -0.103,-1.585 C 19.388,8.188 19.067,7.661 19.067,7.661 L 20.814,7.503 C 20.609,6.604 18.913,2.431 15.932,4.069 15.264,3.223 13.667,1.123 13.208,-1.057 c -0.412,-1.955 0.428,-2.094 2.056,-1.69 1.49,0.369 3.649,2.642 4.061,3.17 l 0.102,-1.004 C 18.964,-1.162 16.086,-4.383 14.133,-5.337 12.078,-6.341 8.839,-5.812 10.947,-0.846 9.405,-1.744 7.555,-4.967 4.06,-5.653 3.152,-5.832 1.798,-4.596 2.981,-1.638 3.199,-1.092 4.163,0.476 4.42,0.793 3.341,0.581 0.977,-3.118 -0.309,-4.28 -1.648,-5.491 -3.443,-5.548 -3.187,-2.484 -3.7,-2.959 -5.22,-4.475 -6.321,-5.019 c -2.776,-1.375 -3.444,-0.212 -3.238,3.012 0,0 -3.032,-2.325 -3.752,-2.907 -0.457,-0.369 -1.079,-0.634 -1.542,-0.423 -0.462,0.212 -1.696,1.85 -1.85,2.959 -2.467,-2.589 -6.321,-5.653 -7.811,0.265 -1.132,-0.529 -6.528,-4.597 -6.939,-4.914 -0.411,-0.317 -1.131,-1.48 -1.593,-2.166 -0.462,-0.688 -5.191,-7.398 -7.607,-6.447 -2.466,3.012 4.112,7.767 4.729,8.877 1.85,2.431 3.803,5.654 4.471,7.873 0,0 -4.836,-4.221 -5.551,-4.809 -1.541,-1.268 -2.758,-1.684 -4.06,-0.951 -2.158,1.216 -2.735,3.981 -2.518,5.337 0.771,4.808 5.01,8.594 5.962,9.352 6.167,4.914 11.512,4.914 13.002,4.756 0.771,-0.74 1.183,-2.325 1.183,-2.325 -0.874,-1.479 -4.215,-3.277 -5.859,-3.858 -0.154,0.687 0.668,1.586 1.233,2.061 -3.392,-1.638 -9.251,-4.256 -12.488,-10.144 -0.669,-1.216 -0.155,-4.069 2.672,-2.061 1.518,1.078 4.111,2.642 10.33,8.506 0.308,0.476 1.079,0.265 1.542,-0.158 0.63,-0.576 1.028,-0.739 0.565,-1.48 -0.386,-0.617 -2.467,-5.389 -5.088,-9.562 l 6.219,3.169 c 1.028,2.59 3.289,5.76 5.139,6.763 1.287,0.698 2.262,-0.475 1.542,-1.637 -0.719,-1.163 -2.827,-4.122 -3.546,-4.703 -0.566,-3.539 2.723,-2.589 4.008,-0.634 1.697,5.284 7.864,7.608 11.564,8.507 0.617,-0.212 1.902,-1.585 0.257,-2.166 0.72,-0.688 1.798,-1.638 -0.206,-3.171 -0.926,-0.708 -2.262,-3.168 -1.49,-3.962 0.874,-0.899 2.159,-0.318 3.341,0.739 0.548,0.49 0.873,0.846 1.284,1.638 0.412,0.793 2.159,3.276 3.393,4.28 C 2.313,4.544 3.341,4.491 2.416,3.118 1.969,2.454 1.234,1.533 0,0"
             style="fill:#ffffff;fill-opacity:1;fill-rule:evenodd;stroke:none"
             id="path2819"
             inkscape:connector-curvature="0" />
        </g>
        <g
           id="g2821"
           transform="translate(269.9577,639.2913)">
          <path
             d="M 0,0 C -0.667,-0.951 -0.051,-1.216 0.462,-0.634 2.981,2.536 6.527,5.548 8.223,5.442 8.994,5.284 8.994,4.016 9.045,3.065 8.532,2.695 6.373,0.528 5.757,-1.691 5.558,-2.404 6.091,-2.872 6.836,-2.536 c 2.107,0.951 3.133,1.964 4.06,3.117 0.976,1.215 2.621,3.646 2.621,3.646 -0.412,0.529 -1.85,0.37 -1.85,0.37 1.387,3.751 3.289,3.17 4.419,2.906 0.514,0.74 0.977,1.585 1.542,2.219 0.424,0.475 1.799,1.163 2.364,0.74 0.392,-0.293 0.514,-0.74 -0.103,-1.585 C 19.388,8.189 19.067,7.661 19.067,7.661 L 20.814,7.503 C 20.609,6.604 18.914,2.43 15.933,4.068 15.264,3.223 13.667,1.123 13.208,-1.057 c -0.41,-1.955 0.429,-2.094 2.056,-1.691 1.491,0.37 3.65,2.642 4.06,3.171 l 0.103,-1.005 C 18.965,-1.163 16.086,-4.383 14.133,-5.337 12.078,-6.341 8.84,-5.812 10.946,-0.846 9.405,-1.743 7.555,-4.966 4.061,-5.653 3.152,-5.831 1.799,-4.597 2.981,-1.638 3.2,-1.091 4.163,0.476 4.42,0.792 3.341,0.581 0.977,-3.117 -0.308,-4.28 c -1.34,-1.211 -3.135,-1.268 -2.878,1.797 -0.514,-0.475 -2.035,-1.991 -3.135,-2.536 -2.776,-1.374 -3.444,-0.211 -3.238,3.011 0,0 -3.032,-2.324 -3.752,-2.906 -0.457,-0.37 -1.079,-0.634 -1.542,-0.423 -0.462,0.212 -1.695,1.849 -1.85,2.959 -2.466,-2.588 -6.321,-5.653 -7.811,0.264 -1.131,-0.528 -6.527,-4.596 -6.939,-4.913 -0.411,-0.317 -1.13,-1.479 -1.593,-2.166 -0.462,-0.688 -5.191,-7.398 -7.606,-6.447 -2.467,3.012 4.111,7.767 4.728,8.877 1.851,2.431 3.803,5.653 4.471,7.873 0,0 -4.836,-4.221 -5.55,-4.809 -1.542,-1.267 -2.759,-1.683 -4.06,-0.95 -2.159,1.214 -2.736,3.98 -2.519,5.336 0.771,4.808 5.01,8.594 5.962,9.352 6.167,4.914 11.512,4.914 13.003,4.755 0.77,-0.739 1.182,-2.324 1.182,-2.324 -0.874,-1.48 -4.215,-3.277 -5.859,-3.858 -0.154,0.688 0.668,1.585 1.233,2.061 -3.392,-1.638 -9.251,-4.256 -12.488,-10.145 -0.669,-1.216 -0.154,-4.068 2.672,-2.06 1.518,1.078 4.111,2.642 10.33,8.506 0.308,0.476 1.08,0.265 1.542,-0.158 0.63,-0.575 1.028,-0.74 0.565,-1.479 -0.386,-0.618 -2.466,-5.39 -5.088,-9.564 l 6.219,3.17 c 1.028,2.589 3.289,5.76 5.14,6.763 1.286,0.698 2.261,-0.475 1.541,-1.638 -0.719,-1.162 -2.827,-4.121 -3.546,-4.702 -0.565,-3.54 2.724,-2.589 4.009,-0.634 1.696,5.284 7.863,7.608 11.563,8.507 0.617,-0.212 1.902,-1.585 0.257,-2.167 0.719,-0.687 1.799,-1.637 -0.205,-3.17 -0.927,-0.708 -2.263,-3.169 -1.491,-3.963 0.874,-0.897 2.159,-0.317 3.341,0.741 0.548,0.49 0.874,0.844 1.285,1.637 0.411,0.793 2.159,3.276 3.392,4.28 C 2.313,4.544 3.341,4.491 2.415,3.117 1.969,2.454 1.233,1.532 0,0"
             style="fill:#006f51;fill-opacity:1;fill-rule:evenodd;stroke:none"
             id="path2823"
             inkscape:connector-curvature="0" />
        </g>
        <g
           id="g2825"
           transform="translate(250.9165,647.5077)">
          <path
             d="M 0,0 C 0,1.109 0.874,2.008 1.953,2.008 3.031,2.008 3.906,1.109 3.906,0 3.906,-1.109 3.031,-2.008 1.953,-2.008 0.874,-2.008 0,-1.109 0,0"
             style="fill:#e31837;fill-opacity:1;fill-rule:evenodd;stroke:none"
             id="path2827"
             inkscape:connector-curvature="0" />
        </g>
        <g
           id="g2829"
           transform="translate(252.8694,649.3063)">
          <path
             d="m 0,0 c -0.962,0 -1.745,-0.807 -1.745,-1.799 0,-0.992 0.783,-1.799 1.745,-1.799 0.963,0 1.746,0.807 1.746,1.799 C 1.746,-0.807 0.963,0 0,0 m 0,-4.016 c -1.191,0 -2.16,0.995 -2.16,2.217 0,1.222 0.969,2.217 2.16,2.217 1.191,0 2.161,-0.995 2.161,-2.217 0,-1.222 -0.97,-2.217 -2.161,-2.217"
             style="fill:#ffffff;fill-opacity:1;fill-rule:nonzero;stroke:none"
             id="path2831"
             inkscape:connector-curvature="0" />
        </g>
        <g
           id="g2833"
           transform="translate(261.7347,642.488)">
          <path
             d="M 0,0 C -1.439,-0.291 -4.856,-2.721 -5.422,-4.57 -5.623,-5.228 -5.137,-5.356 -4.625,-4.993 -3.212,-3.989 -0.205,-0.449 0,0"
             style="fill:#ffffff;fill-opacity:1;fill-rule:evenodd;stroke:none"
             id="path2835"
             inkscape:connector-curvature="0" />
        </g>
      </g>
    </g>
    <g
       transform="matrix(14.158559,0,0,-14.158559,-3559.5394,8739.2934)"
       id="g2837">
      <g
         id="g2839"
         clip-path="url(#clipPath2843)">
        <g
           id="g2845"
           transform="translate(294.4218,652.4062)" />
      </g>
    </g>
  </g>
</svg>
